<?xml version="1.0" encoding="utf-8"?>
<!-- Generator: Adobe Illustrator 18.1.0, SVG Export Plug-In . SVG Version: 6.00 Build 0)  -->
<svg version="1.1" id="Слой_1" xmlns="http://www.w3.org/2000/svg" xmlns:xlink="http://www.w3.org/1999/xlink" x="0px" y="0px"
	 viewBox="0 0 300 300" enable-background="new 0 0 300 300" xml:space="preserve">
<g>
	<path fill="#323232" d="M142.1,50.1c-58.3,0-105.6,47.3-105.6,105.6s47.3,105.6,105.6,105.6s105.6-47.3,105.6-105.6
		S200.5,50.1,142.1,50.1z M142.1,237.9c-45.4,0-82.2-36.8-82.2-82.2s36.8-82.2,82.2-82.2s82.2,36.8,82.2,82.2
		S187.5,237.9,142.1,237.9z"/>
	<polygon fill="#323232" points="139.8,157.5 109.4,127.1 89.1,147.4 139.8,198 200.5,137.3 180.3,117 	"/>
	<g>
		<path fill="#323232" d="M236.2,50l-16,16c-4.1-3.5-8.5-6.7-13.1-9.6l17.8-17.8L236.2,50z"/>
		<path fill="#323232" d="M249.8,63.7l-16.2,16.2c-3.4-4.2-7.1-8.1-11-11.7l15.9-15.9L249.8,63.7z"/>
		<path fill="#323232" d="M263.5,77.4l-19,19c-2.6-4.9-5.6-9.5-8.9-13.8L252.2,66L263.5,77.4z"/>
	</g>
</g>
</svg>
