#define volume_100_width 23
#define volume_100_height 16
static unsigned char volume_100_bits[] = {
   0x00, 0x00, 0x60, 0x00, 0x00, 0x60, 0x00, 0x00, 0x6c, 0x00, 0x00, 0x6c,
   0x00, 0x80, 0x6d, 0x00, 0x80, 0x6d, 0x00, 0xb0, 0x6d, 0x00, 0xb0, 0x6d,
   0x00, 0xb6, 0x6d, 0x00, 0xb6, 0x6d, 0xc0, 0xb6, 0x6d, 0xc0, 0xb6, 0x6d,
   0xd8, 0xb6, 0x6d, 0xd8, 0xb6, 0x6d, 0xdb, 0xb6, 0x6d, 0xdb, 0xb6, 0x6d };
