#define volume_69_width 23
#define volume_69_height 16
static unsigned char volume_69_bits[] = {
   0x00, 0x00, 0x00, 0x00, 0x00, 0x00, 0x00, 0x00, 0x00, 0x00, 0x00, 0x00,
   0x00, 0x80, 0x00, 0x00, 0x80, 0x00, 0x00, 0xb0, 0x00, 0x00, 0xb0, 0x00,
   0x00, 0xb6, 0x00, 0x00, 0xb6, 0x00, 0xc0, 0xb6, 0x00, 0xc0, 0xb6, 0x00,
   0xd8, 0xb6, 0x00, 0xd8, 0xb6, 0x00, 0xdb, 0xb6, 0x00, 0xdb, 0xb6, 0x00 };
