#define volume_56_width 23
#define volume_56_height 16
static unsigned char volume_56_bits[] = {
   0x00, 0x00, 0x00, 0x00, 0x00, 0x00, 0x00, 0x00, 0x00, 0x00, 0x00, 0x00,
   0x00, 0x00, 0x00, 0x00, 0x00, 0x00, 0x00, 0x10, 0x00, 0x00, 0x10, 0x00,
   0x00, 0x16, 0x00, 0x00, 0x16, 0x00, 0xc0, 0x16, 0x00, 0xc0, 0x16, 0x00,
   0xd8, 0x16, 0x00, 0xd8, 0x16, 0x00, 0xdb, 0x16, 0x00, 0xdb, 0x16, 0x00 };
