#define volume_88_width 23
#define volume_88_height 16
static unsigned char volume_88_bits[] = {
   0x00, 0x00, 0x00, 0x00, 0x00, 0x00, 0x00, 0x00, 0x0c, 0x00, 0x00, 0x0c,
   0x00, 0x80, 0x0d, 0x00, 0x80, 0x0d, 0x00, 0xb0, 0x0d, 0x00, 0xb0, 0x0d,
   0x00, 0xb6, 0x0d, 0x00, 0xb6, 0x0d, 0xc0, 0xb6, 0x0d, 0xc0, 0xb6, 0x0d,
   0xd8, 0xb6, 0x0d, 0xd8, 0xb6, 0x0d, 0xdb, 0xb6, 0x0d, 0xdb, 0xb6, 0x0d };
