#define volume_38_width 23
#define volume_38_height 16
static unsigned char volume_38_bits[] = {
   0x00, 0x00, 0x00, 0x00, 0x00, 0x00, 0x00, 0x00, 0x00, 0x00, 0x00, 0x00,
   0x00, 0x00, 0x00, 0x00, 0x00, 0x00, 0x00, 0x00, 0x00, 0x00, 0x00, 0x00,
   0x00, 0x00, 0x00, 0x00, 0x00, 0x00, 0xc0, 0x00, 0x00, 0xc0, 0x00, 0x00,
   0xd8, 0x00, 0x00, 0xd8, 0x00, 0x00, 0xdb, 0x00, 0x00, 0xdb, 0x00, 0x00 };
