#define volume_82_width 23
#define volume_82_height 16
static unsigned char volume_82_bits[] = {
   0x00, 0x00, 0x00, 0x00, 0x00, 0x00, 0x00, 0x00, 0x04, 0x00, 0x00, 0x04,
   0x00, 0x80, 0x05, 0x00, 0x80, 0x05, 0x00, 0xb0, 0x05, 0x00, 0xb0, 0x05,
   0x00, 0xb6, 0x05, 0x00, 0xb6, 0x05, 0xc0, 0xb6, 0x05, 0xc0, 0xb6, 0x05,
   0xd8, 0xb6, 0x05, 0xd8, 0xb6, 0x05, 0xdb, 0xb6, 0x05, 0xdb, 0xb6, 0x05 };
