#define volume_44_width 23
#define volume_44_height 16
static unsigned char volume_44_bits[] = {
   0x00, 0x00, 0x00, 0x00, 0x00, 0x00, 0x00, 0x00, 0x00, 0x00, 0x00, 0x00,
   0x00, 0x00, 0x00, 0x00, 0x00, 0x00, 0x00, 0x00, 0x00, 0x00, 0x00, 0x00,
   0x00, 0x02, 0x00, 0x00, 0x02, 0x00, 0xc0, 0x02, 0x00, 0xc0, 0x02, 0x00,
   0xd8, 0x02, 0x00, 0xd8, 0x02, 0x00, 0xdb, 0x02, 0x00, 0xdb, 0x02, 0x00 };
