#define battery_25_width 16
#define battery_25_height 16
static unsigned char battery_25_bits[] = {
   0x00, 0x00, 0x00, 0x00, 0x00, 0x00, 0x00, 0x00, 0x00, 0x00, 0x00, 0x00,
   0x00, 0x00, 0x00, 0x00, 0x00, 0x00, 0x00, 0x00, 0x00, 0x00, 0x00, 0x00,
   0xff, 0xff, 0xff, 0xff, 0xff, 0xff, 0xff, 0xff };
