#define centos_width 14
#define centos_height 14
static unsigned char centos_bits[] = {
   0x00, 0x00, 0xc0, 0x00, 0xe0, 0x01, 0xf8, 0x07, 0x78, 0x04, 0x7c, 0x0c,
   0x7e, 0x1c, 0x8e, 0x1f, 0x8c, 0x0f, 0x88, 0x07, 0xf8, 0x07, 0xe0, 0x01,
   0xc0, 0x00, 0x00, 0x00 };
