#define cpu_width 14
#define cpu_height 14
static unsigned char cpu_bits[] = {
   0x48, 0x02, 0x48, 0x02, 0xfc, 0x0f, 0xff, 0x3f, 0xfc, 0x0f, 0x1c, 0x0e,
   0x1f, 0x3e, 0x1c, 0x0e, 0x1c, 0x0e, 0xff, 0x3f, 0xfc, 0x0f, 0xfc, 0x0f,
   0x48, 0x02, 0x48, 0x02 };
