#define volume_63_width 23
#define volume_63_height 16
static unsigned char volume_63_bits[] = {
   0x00, 0x00, 0x00, 0x00, 0x00, 0x00, 0x00, 0x00, 0x00, 0x00, 0x00, 0x00,
   0x00, 0x00, 0x00, 0x00, 0x00, 0x00, 0x00, 0x30, 0x00, 0x00, 0x30, 0x00,
   0x00, 0x36, 0x00, 0x00, 0x36, 0x00, 0xc0, 0x36, 0x00, 0xc0, 0x36, 0x00,
   0xd8, 0x36, 0x00, 0xd8, 0x36, 0x00, 0xdb, 0x36, 0x00, 0xdb, 0x36, 0x00 };
