#define volume_94_width 23
#define volume_94_height 16
static unsigned char volume_94_bits[] = {
   0x00, 0x00, 0x20, 0x00, 0x00, 0x20, 0x00, 0x00, 0x2c, 0x00, 0x00, 0x2c,
   0x00, 0x80, 0x2d, 0x00, 0x80, 0x2d, 0x00, 0xb0, 0x2d, 0x00, 0xb0, 0x2d,
   0x00, 0xb6, 0x2d, 0x00, 0xb6, 0x2d, 0xc0, 0xb6, 0x2d, 0xc0, 0xb6, 0x2d,
   0xd8, 0xb6, 0x2d, 0xd8, 0xb6, 0x2d, 0xdb, 0xb6, 0x2d, 0xdb, 0xb6, 0x2d };
