#define volume_31_width 23
#define volume_31_height 16
static unsigned char volume_31_bits[] = {
   0x00, 0x00, 0x00, 0x00, 0x00, 0x00, 0x00, 0x00, 0x00, 0x00, 0x00, 0x00,
   0x00, 0x00, 0x00, 0x00, 0x00, 0x00, 0x00, 0x00, 0x00, 0x00, 0x00, 0x00,
   0x00, 0x00, 0x00, 0x00, 0x00, 0x00, 0x40, 0x00, 0x00, 0x40, 0x00, 0x00,
   0x58, 0x00, 0x00, 0x58, 0x00, 0x00, 0x5b, 0x00, 0x00, 0x5b, 0x00, 0x00 };
