#define volume_75_width 23
#define volume_75_height 16
static unsigned char volume_75_bits[] = {
   0x00, 0x00, 0x00, 0x00, 0x00, 0x00, 0x00, 0x00, 0x00, 0x00, 0x00, 0x00,
   0x00, 0x80, 0x01, 0x00, 0x80, 0x01, 0x00, 0xb0, 0x01, 0x00, 0xb0, 0x01,
   0x00, 0xb6, 0x01, 0x00, 0xb6, 0x01, 0xc0, 0xb6, 0x01, 0xc0, 0xb6, 0x01,
   0xd8, 0xb6, 0x01, 0xd8, 0xb6, 0x01, 0xdb, 0xb6, 0x01, 0xdb, 0xb6, 0x01 };
