#define wifi_100_width 16
#define wifi_100_height 16
static unsigned char wifi_100_bits[] = {
   0x00, 0x00, 0x00, 0x00, 0xfe, 0x7f, 0xfe, 0x7f, 0x00, 0x00, 0xf8, 0x1f,
   0xf8, 0x1f, 0x00, 0x00, 0xe0, 0x07, 0xe0, 0x07, 0x00, 0x00, 0x80, 0x01,
   0x80, 0x01, 0x00, 0x00, 0x00, 0x00, 0x00, 0x00 };
