#define workspace_width 8
#define workspace_height 16
static unsigned char workspace_bits[] = {
   0x00, 0x00, 0x00, 0x00, 0x00, 0x00, 0x3c, 0x3c, 0x3c, 0x3c, 0x00, 0x00,
   0x00, 0x00, 0x00, 0x00 };
